<svg xmlns="http://www.w3.org/2000/svg" viewBox="0 0 400 270"><title>Adenosine</title><desc>Projection of 32 atoms from gallery/curated/popular/adenosine.xyz. Lines are distance-inferred visual guides, not source bond topology. Source SHA256 90e334d9d37126e2b7ed02b097f16d5bedb71eafb16a1d6cb5bf21b0f9129a91.</desc><defs><radialGradient id="O" cx="30%" cy="25%" r="75%"><stop stop-color="#ffffff" stop-opacity=".95"/><stop offset=".35" stop-color="#ed927e"/><stop offset="1" stop-color="#ed927e" stop-opacity=".45"/></radialGradient><radialGradient id="N" cx="30%" cy="25%" r="75%"><stop stop-color="#ffffff" stop-opacity=".95"/><stop offset=".35" stop-color="#81a9ed"/><stop offset="1" stop-color="#81a9ed" stop-opacity=".45"/></radialGradient><radialGradient id="C" cx="30%" cy="25%" r="75%"><stop stop-color="#ffffff" stop-opacity=".95"/><stop offset=".35" stop-color="#94aaa0"/><stop offset="1" stop-color="#94aaa0" stop-opacity=".45"/></radialGradient><radialGradient id="H" cx="30%" cy="25%" r="75%"><stop stop-color="#ffffff" stop-opacity=".95"/><stop offset=".35" stop-color="#f2f0dc"/><stop offset="1" stop-color="#f2f0dc" stop-opacity=".45"/></radialGradient></defs><rect width="400" height="270" fill="#101a18"/><g stroke="#698478" stroke-width="3.24" stroke-linecap="round"><path d="M247.77 130.7L229 114.74"/><path d="M247.77 130.7L286.08 125.04"/><path d="M247.24 80.89L257.15 108.9"/><path d="M247.24 80.89L244.72 58.85"/><path d="M288.16 63.55L290.27 100.01"/><path d="M288.16 63.55L309.1 59.14"/><path d="M298.36 182.84L303.97 161.56"/><path d="M298.36 182.84L272.47 185.16"/><path d="M199.12 138L229 114.74"/><path d="M199.12 138L166.66 127.34"/><path d="M199.12 138L198.47 174.92"/><path d="M167.81 188.4L198.47 174.92"/><path d="M167.81 188.4L147.67 158.96"/><path d="M155.47 93.55L166.66 127.34"/><path d="M155.47 93.55L121.74 93.7"/><path d="M100.08 122.21L113.14 155.57"/><path d="M100.08 122.21L121.74 93.7"/><path d="M91.98 186.23L113.14 155.57"/><path d="M91.98 186.23L101.67 211.15"/><path d="M91.98 186.23L66.98 183.06"/><path d="M257.15 108.9L229 114.74"/><path d="M257.15 108.9L290.27 100.01"/><path d="M257.15 108.9L261.61 133.55"/><path d="M229 114.74L217.08 89.33"/><path d="M290.27 100.01L286.08 125.04"/><path d="M290.27 100.01L315.56 103.13"/><path d="M286.08 125.04L303.97 161.56"/><path d="M286.08 125.04L295.91 112.78"/><path d="M303.97 161.56L292.51 176.15"/><path d="M303.97 161.56L333.02 158.63"/><path d="M166.66 127.34L147.67 158.96"/><path d="M198.47 174.92L220.98 190.58"/><path d="M147.67 158.96L113.14 155.57"/><path d="M121.74 93.7L110.42 67.42"/></g><circle cx="66.98" cy="183.06" r="5.4" fill="url(#H)"/><circle cx="101.67" cy="211.15" r="5.4" fill="url(#H)"/><circle cx="91.98" cy="186.23" r="9.17" fill="url(#N)"/><circle cx="113.14" cy="155.57" r="9.17" fill="url(#C)"/><circle cx="100.08" cy="122.21" r="9.17" fill="url(#N)"/><circle cx="147.67" cy="158.96" r="9.17" fill="url(#C)"/><circle cx="110.42" cy="67.42" r="5.4" fill="url(#H)"/><circle cx="121.74" cy="93.7" r="9.17" fill="url(#C)"/><circle cx="167.81" cy="188.4" r="9.17" fill="url(#N)"/><circle cx="272.47" cy="185.16" r="5.4" fill="url(#H)"/><circle cx="166.66" cy="127.34" r="9.17" fill="url(#C)"/><circle cx="155.47" cy="93.55" r="9.17" fill="url(#N)"/><circle cx="198.47" cy="174.92" r="9.17" fill="url(#C)"/><circle cx="247.77" cy="130.7" r="9.17" fill="url(#O)"/><circle cx="217.08" cy="89.33" r="5.4" fill="url(#H)"/><circle cx="220.98" cy="190.58" r="5.4" fill="url(#H)"/><circle cx="199.12" cy="138" r="9.17" fill="url(#N)"/><circle cx="298.36" cy="182.84" r="9.17" fill="url(#O)"/><circle cx="229" cy="114.74" r="9.17" fill="url(#C)"/><circle cx="295.91" cy="112.78" r="5.4" fill="url(#H)"/><circle cx="286.08" cy="125.04" r="9.17" fill="url(#C)"/><circle cx="303.97" cy="161.56" r="9.17" fill="url(#C)"/><circle cx="288.16" cy="63.55" r="9.17" fill="url(#O)"/><circle cx="292.51" cy="176.15" r="5.4" fill="url(#H)"/><circle cx="309.1" cy="59.14" r="5.4" fill="url(#H)"/><circle cx="257.15" cy="108.9" r="9.17" fill="url(#C)"/><circle cx="290.27" cy="100.01" r="9.17" fill="url(#C)"/><circle cx="244.72" cy="58.85" r="5.4" fill="url(#H)"/><circle cx="333.02" cy="158.63" r="5.4" fill="url(#H)"/><circle cx="261.61" cy="133.55" r="5.4" fill="url(#H)"/><circle cx="247.24" cy="80.89" r="9.17" fill="url(#O)"/><circle cx="315.56" cy="103.13" r="5.4" fill="url(#H)"/></svg>
