<svg xmlns="http://www.w3.org/2000/svg" viewBox="0 0 400 270"><title>Benzene</title><desc>Projection of 12 atoms from gallery/curated/popular/benzene.xyz. Lines are distance-inferred visual guides, not source bond topology. Source SHA256 174ba9f64f1e3f58419b98fd1aa8e92175f368c063a7acb5a399509d3c7bddd2.</desc><defs><radialGradient id="H" cx="30%" cy="25%" r="75%"><stop stop-color="#ffffff" stop-opacity=".95"/><stop offset=".35" stop-color="#f2f0dc"/><stop offset="1" stop-color="#f2f0dc" stop-opacity=".45"/></radialGradient><radialGradient id="C" cx="30%" cy="25%" r="75%"><stop stop-color="#ffffff" stop-opacity=".95"/><stop offset=".35" stop-color="#94aaa0"/><stop offset="1" stop-color="#94aaa0" stop-opacity=".45"/></radialGradient><radialGradient id="N" cx="30%" cy="25%" r="75%"><stop stop-color="#ffffff" stop-opacity=".95"/><stop offset=".35" stop-color="#81a9ed"/><stop offset="1" stop-color="#81a9ed" stop-opacity=".45"/></radialGradient><radialGradient id="O" cx="30%" cy="25%" r="75%"><stop stop-color="#ffffff" stop-opacity=".95"/><stop offset=".35" stop-color="#ed927e"/><stop offset="1" stop-color="#ed927e" stop-opacity=".45"/></radialGradient><radialGradient id="S" cx="30%" cy="25%" r="75%"><stop stop-color="#ffffff" stop-opacity=".95"/><stop offset=".35" stop-color="#e8d283"/><stop offset="1" stop-color="#e8d283" stop-opacity=".45"/></radialGradient></defs><rect width="400" height="270" fill="#101a18"/><g stroke="#698478" stroke-width="3.78" stroke-linecap="round"><path d="M164.09 159.79L164.39 118.47"/><path d="M164.09 159.79L199.7 176.33"/><path d="M164.09 159.79L136.13 179.1"/><path d="M164.39 118.47L200.31 93.67"/><path d="M164.39 118.47L136.67 105.59"/><path d="M199.7 176.33L235.61 151.53"/><path d="M199.7 176.33L199.45 208.51"/><path d="M200.31 93.67L235.91 110.2"/><path d="M200.31 93.67L200.54 61.49"/><path d="M235.61 151.53L235.91 110.2"/><path d="M235.61 151.53L263.33 164.4"/><path d="M235.91 110.2L263.87 90.89"/></g><circle cx="136.13" cy="179.1" r="6.3" fill="url(#H)"/><circle cx="199.45" cy="208.51" r="6.3" fill="url(#H)"/><circle cx="164.09" cy="159.79" r="10.71" fill="url(#C)"/><circle cx="199.7" cy="176.33" r="10.71" fill="url(#C)"/><circle cx="136.67" cy="105.59" r="6.3" fill="url(#H)"/><circle cx="164.39" cy="118.47" r="10.71" fill="url(#C)"/><circle cx="235.61" cy="151.53" r="10.71" fill="url(#C)"/><circle cx="263.33" cy="164.4" r="6.3" fill="url(#H)"/><circle cx="200.31" cy="93.67" r="10.71" fill="url(#C)"/><circle cx="235.91" cy="110.2" r="10.71" fill="url(#C)"/><circle cx="200.54" cy="61.49" r="6.3" fill="url(#H)"/><circle cx="263.87" cy="90.89" r="6.3" fill="url(#H)"/></svg>
