<svg xmlns="http://www.w3.org/2000/svg" viewBox="0 0 400 270"><title>1-Bromobutane</title><desc>Projection of 14 atoms from gallery/curated/organic/bromobutane_1.xyz. Lines are distance-inferred visual guides, not source bond topology. Source SHA256 903caffa89a807646a7275ca9bca073beb8377fe24c28ff7a0b6292d1090fb2f.</desc><defs><radialGradient id="Br" cx="30%" cy="25%" r="75%"><stop stop-color="#ffffff" stop-opacity=".95"/><stop offset=".35" stop-color="#c77a63"/><stop offset="1" stop-color="#c77a63" stop-opacity=".45"/></radialGradient><radialGradient id="C" cx="30%" cy="25%" r="75%"><stop stop-color="#ffffff" stop-opacity=".95"/><stop offset=".35" stop-color="#94aaa0"/><stop offset="1" stop-color="#94aaa0" stop-opacity=".45"/></radialGradient><radialGradient id="H" cx="30%" cy="25%" r="75%"><stop stop-color="#ffffff" stop-opacity=".95"/><stop offset=".35" stop-color="#f2f0dc"/><stop offset="1" stop-color="#f2f0dc" stop-opacity=".45"/></radialGradient></defs><rect width="400" height="270" fill="#101a18"/><g stroke="#698478" stroke-width="4.85" stroke-linecap="round"><path d="M319.23 137.89L256.56 105.53"/><path d="M211.12 146.56L161.88 122.87"/><path d="M211.12 146.56L256.56 105.53"/><path d="M211.12 146.56L224.74 182.71"/><path d="M211.12 146.56L199.76 159.67"/><path d="M161.88 122.87L115.53 163.04"/><path d="M161.88 122.87L172.71 111.04"/><path d="M161.88 122.87L148.42 86.33"/><path d="M256.56 105.53L269.75 92.31"/><path d="M256.56 105.53L245.43 70.38"/><path d="M115.53 163.04L127.24 199.62"/><path d="M115.53 163.04L80.77 145.27"/><path d="M115.53 163.04L102.82 174.62"/></g><circle cx="102.82" cy="174.62" r="8.08" fill="url(#H)"/><circle cx="199.76" cy="159.67" r="8.08" fill="url(#H)"/><circle cx="80.77" cy="145.27" r="8.08" fill="url(#H)"/><circle cx="115.53" cy="163.04" r="13.73" fill="url(#C)"/><circle cx="148.42" cy="86.33" r="8.08" fill="url(#H)"/><circle cx="127.24" cy="199.62" r="8.08" fill="url(#H)"/><circle cx="161.88" cy="122.87" r="13.73" fill="url(#C)"/><circle cx="211.12" cy="146.56" r="13.73" fill="url(#C)"/><circle cx="245.43" cy="70.38" r="8.08" fill="url(#H)"/><circle cx="224.74" cy="182.71" r="8.08" fill="url(#H)"/><circle cx="256.56" cy="105.53" r="13.73" fill="url(#C)"/><circle cx="172.71" cy="111.04" r="8.08" fill="url(#H)"/><circle cx="319.23" cy="137.89" r="13.73" fill="url(#Br)"/><circle cx="269.75" cy="92.31" r="8.08" fill="url(#H)"/></svg>
