<svg xmlns="http://www.w3.org/2000/svg" viewBox="0 0 400 270"><title>Curcumin</title><desc>Projection of 47 atoms from gallery/curated/popular/curcumin.xyz. Lines are distance-inferred visual guides, not source bond topology. Source SHA256 050e9c03744cca5d3fcc86474e9408a5f3664dfadc781cf51806b706df3ff828.</desc><defs><radialGradient id="O" cx="30%" cy="25%" r="75%"><stop stop-color="#ffffff" stop-opacity=".95"/><stop offset=".35" stop-color="#ed927e"/><stop offset="1" stop-color="#ed927e" stop-opacity=".45"/></radialGradient><radialGradient id="C" cx="30%" cy="25%" r="75%"><stop stop-color="#ffffff" stop-opacity=".95"/><stop offset=".35" stop-color="#94aaa0"/><stop offset="1" stop-color="#94aaa0" stop-opacity=".45"/></radialGradient><radialGradient id="H" cx="30%" cy="25%" r="75%"><stop stop-color="#ffffff" stop-opacity=".95"/><stop offset=".35" stop-color="#f2f0dc"/><stop offset="1" stop-color="#f2f0dc" stop-opacity=".45"/></radialGradient></defs><rect width="400" height="270" fill="#101a18"/><g stroke="#698478" stroke-width="1.95" stroke-linecap="round"><path d="M314.81 147.38L292.92 144.36"/><path d="M314.81 147.38L326.63 134.09"/><path d="M79 163.83L99.62 161.91"/><path d="M79 163.83L73.15 150.16"/><path d="M289.47 172L280.2 156.71"/><path d="M289.47 172L305.04 172.04"/><path d="M92.92 189.33L106.6 174.7"/><path d="M92.92 189.33L100.54 196.7"/><path d="M229.24 73.3L220.77 91.34"/><path d="M177.71 99.56L181.63 105.42"/><path d="M260.95 125.76L283.22 128.77"/><path d="M260.95 125.76L248.11 137.9"/><path d="M260.95 125.76L250.71 109.29"/><path d="M134.74 145.1L113.78 147"/><path d="M134.74 145.1L141.91 157.69"/><path d="M134.74 145.1L149.7 129.35"/><path d="M201.29 97.48L220.77 91.34"/><path d="M201.29 97.48L181.63 105.42"/><path d="M201.29 97.48L196.24 83.13"/><path d="M201.29 97.48L206.7 109.81"/><path d="M283.22 128.77L292.92 144.36"/><path d="M283.22 128.77L292.3 118.74"/><path d="M113.78 147L99.62 161.91"/><path d="M113.78 147L109.22 136.63"/><path d="M292.92 144.36L280.2 156.71"/><path d="M99.62 161.91L106.6 174.7"/><path d="M248.11 137.9L257.79 153.48"/><path d="M248.11 137.9L230.67 135.69"/><path d="M141.91 157.69L127.75 172.59"/><path d="M141.91 157.69L158.31 156.85"/><path d="M250.71 109.29L229.58 108.9"/><path d="M250.71 109.29L261.47 96.65"/><path d="M149.7 129.35L167.61 121.5"/><path d="M149.7 129.35L145.3 124.03"/><path d="M280.2 156.71L257.79 153.48"/><path d="M106.6 174.7L127.75 172.59"/><path d="M220.77 91.34L229.58 108.9"/><path d="M181.63 105.42L167.61 121.5"/><path d="M257.79 153.48L247.82 163.01"/><path d="M127.75 172.59L133.41 182.52"/><path d="M229.58 108.9L218.32 121.56"/><path d="M167.61 121.5L172.55 125.8"/><path d="M326.63 134.09L321.83 137.19"/><path d="M326.63 134.09L325.53 116.87"/><path d="M326.63 134.09L343.75 138.66"/><path d="M73.15 150.16L82.84 153.71"/><path d="M73.15 150.16L73.72 132.96"/><path d="M73.15 150.16L56.25 153.85"/></g><circle cx="56.25" cy="153.85" r="3.25" fill="url(#H)"/><circle cx="82.84" cy="153.71" r="3.25" fill="url(#H)"/><circle cx="73.15" cy="150.16" r="5.52" fill="url(#C)"/><circle cx="73.72" cy="132.96" r="3.25" fill="url(#H)"/><circle cx="79" cy="163.83" r="5.52" fill="url(#O)"/><circle cx="109.22" cy="136.63" r="3.25" fill="url(#H)"/><circle cx="99.62" cy="161.91" r="5.52" fill="url(#C)"/><circle cx="113.78" cy="147" r="5.52" fill="url(#C)"/><circle cx="145.3" cy="124.03" r="3.25" fill="url(#H)"/><circle cx="92.92" cy="189.33" r="5.52" fill="url(#O)"/><circle cx="106.6" cy="174.7" r="5.52" fill="url(#C)"/><circle cx="247.82" cy="163.01" r="3.25" fill="url(#H)"/><circle cx="134.74" cy="145.1" r="5.52" fill="url(#C)"/><circle cx="149.7" cy="129.35" r="5.52" fill="url(#C)"/><circle cx="177.71" cy="99.56" r="5.52" fill="url(#O)"/><circle cx="100.54" cy="196.7" r="3.25" fill="url(#H)"/><circle cx="230.67" cy="135.69" r="3.25" fill="url(#H)"/><circle cx="257.79" cy="153.48" r="5.52" fill="url(#C)"/><circle cx="127.75" cy="172.59" r="5.52" fill="url(#C)"/><circle cx="141.91" cy="157.69" r="5.52" fill="url(#C)"/><circle cx="248.11" cy="137.9" r="5.52" fill="url(#C)"/><circle cx="167.61" cy="121.5" r="5.52" fill="url(#C)"/><circle cx="181.63" cy="105.42" r="5.52" fill="url(#C)"/><circle cx="289.47" cy="172" r="5.52" fill="url(#O)"/><circle cx="218.32" cy="121.56" r="3.25" fill="url(#H)"/><circle cx="133.41" cy="182.52" r="3.25" fill="url(#H)"/><circle cx="280.2" cy="156.71" r="5.52" fill="url(#C)"/><circle cx="158.31" cy="156.85" r="3.25" fill="url(#H)"/><circle cx="305.04" cy="172.04" r="3.25" fill="url(#H)"/><circle cx="172.55" cy="125.8" r="3.25" fill="url(#H)"/><circle cx="229.58" cy="108.9" r="5.52" fill="url(#C)"/><circle cx="260.95" cy="125.76" r="5.52" fill="url(#C)"/><circle cx="201.29" cy="97.48" r="5.52" fill="url(#C)"/><circle cx="220.77" cy="91.34" r="5.52" fill="url(#C)"/><circle cx="250.71" cy="109.29" r="5.52" fill="url(#C)"/><circle cx="292.92" cy="144.36" r="5.52" fill="url(#C)"/><circle cx="196.24" cy="83.13" r="3.25" fill="url(#H)"/><circle cx="229.24" cy="73.3" r="5.52" fill="url(#O)"/><circle cx="283.22" cy="128.77" r="5.52" fill="url(#C)"/><circle cx="206.7" cy="109.81" r="3.25" fill="url(#H)"/><circle cx="261.47" cy="96.65" r="3.25" fill="url(#H)"/><circle cx="314.81" cy="147.38" r="5.52" fill="url(#O)"/><circle cx="292.3" cy="118.74" r="3.25" fill="url(#H)"/><circle cx="325.53" cy="116.87" r="3.25" fill="url(#H)"/><circle cx="326.63" cy="134.09" r="5.52" fill="url(#C)"/><circle cx="343.75" cy="138.66" r="3.25" fill="url(#H)"/><circle cx="321.83" cy="137.19" r="3.25" fill="url(#H)"/></svg>
