<svg xmlns="http://www.w3.org/2000/svg" viewBox="0 0 400 270"><title>DMT</title><desc>Projection of 30 atoms from gallery/curated/popular/dmt.xyz. Lines are distance-inferred visual guides, not source bond topology. Source SHA256 a34fc84117696dffe8bd674c606e39dc39baf237cdcee87628bd8642dfdb9654.</desc><defs><radialGradient id="N" cx="30%" cy="25%" r="75%"><stop stop-color="#ffffff" stop-opacity=".95"/><stop offset=".35" stop-color="#81a9ed"/><stop offset="1" stop-color="#81a9ed" stop-opacity=".45"/></radialGradient><radialGradient id="C" cx="30%" cy="25%" r="75%"><stop stop-color="#ffffff" stop-opacity=".95"/><stop offset=".35" stop-color="#94aaa0"/><stop offset="1" stop-color="#94aaa0" stop-opacity=".45"/></radialGradient><radialGradient id="H" cx="30%" cy="25%" r="75%"><stop stop-color="#ffffff" stop-opacity=".95"/><stop offset=".35" stop-color="#f2f0dc"/><stop offset="1" stop-color="#f2f0dc" stop-opacity=".45"/></radialGradient></defs><rect width="400" height="270" fill="#101a18"/><g stroke="#698478" stroke-width="3.07" stroke-linecap="round"><path d="M130.65 147.08L159.85 148.36"/><path d="M130.65 147.08L100.48 133.69"/><path d="M130.65 147.08L138.54 126.16"/><path d="M261.45 179.99L270.52 147.05"/><path d="M261.45 179.99L232.45 189.28"/><path d="M261.45 179.99L274.35 195.11"/><path d="M192.35 161.22L222.48 162.05"/><path d="M192.35 161.22L159.85 148.36"/><path d="M192.35 161.22L187.68 186.87"/><path d="M192.35 161.22L199.08 145.06"/><path d="M222.48 162.05L246.33 135.13"/><path d="M222.48 162.05L232.45 189.28"/><path d="M159.85 148.36L154.05 165.62"/><path d="M159.85 148.36L164.82 123.1"/><path d="M246.33 135.13L270.52 147.05"/><path d="M246.33 135.13L249.69 101.66"/><path d="M270.52 147.05L298 127.09"/><path d="M232.45 189.28L221.55 214.43"/><path d="M249.69 101.66L277.05 81.41"/><path d="M249.69 101.66L231.39 91.44"/><path d="M298 127.09L300.8 93.98"/><path d="M298 127.09L316.5 136.86"/><path d="M100.48 133.69L94.14 149.61"/><path d="M100.48 133.69L104.2 107.36"/><path d="M100.48 133.69L78.15 134.26"/><path d="M138.54 126.16L115.35 121.63"/><path d="M138.54 126.16L149.18 101.16"/><path d="M138.54 126.16L155.96 139.27"/><path d="M277.05 81.41L300.8 93.98"/><path d="M277.05 81.41L279.76 55.57"/><path d="M300.8 93.98L321.85 77.81"/></g><circle cx="94.14" cy="149.61" r="5.11" fill="url(#H)"/><circle cx="104.2" cy="107.36" r="5.11" fill="url(#H)"/><circle cx="78.15" cy="134.26" r="5.11" fill="url(#H)"/><circle cx="100.48" cy="133.69" r="8.69" fill="url(#C)"/><circle cx="154.05" cy="165.62" r="5.11" fill="url(#H)"/><circle cx="164.82" cy="123.1" r="5.11" fill="url(#H)"/><circle cx="159.85" cy="148.36" r="8.69" fill="url(#C)"/><circle cx="130.65" cy="147.08" r="8.69" fill="url(#N)"/><circle cx="221.55" cy="214.43" r="5.11" fill="url(#H)"/><circle cx="274.35" cy="195.11" r="5.11" fill="url(#H)"/><circle cx="232.45" cy="189.28" r="8.69" fill="url(#C)"/><circle cx="261.45" cy="179.99" r="8.69" fill="url(#N)"/><circle cx="115.35" cy="121.63" r="5.11" fill="url(#H)"/><circle cx="138.54" cy="126.16" r="8.69" fill="url(#C)"/><circle cx="192.35" cy="161.22" r="8.69" fill="url(#C)"/><circle cx="222.48" cy="162.05" r="8.69" fill="url(#C)"/><circle cx="149.18" cy="101.16" r="5.11" fill="url(#H)"/><circle cx="187.68" cy="186.87" r="5.11" fill="url(#H)"/><circle cx="270.52" cy="147.05" r="8.69" fill="url(#C)"/><circle cx="246.33" cy="135.13" r="8.69" fill="url(#C)"/><circle cx="316.5" cy="136.86" r="5.11" fill="url(#H)"/><circle cx="298" cy="127.09" r="8.69" fill="url(#C)"/><circle cx="155.96" cy="139.27" r="5.11" fill="url(#H)"/><circle cx="199.08" cy="145.06" r="5.11" fill="url(#H)"/><circle cx="249.69" cy="101.66" r="8.69" fill="url(#C)"/><circle cx="300.8" cy="93.98" r="8.69" fill="url(#C)"/><circle cx="231.39" cy="91.44" r="5.11" fill="url(#H)"/><circle cx="277.05" cy="81.41" r="8.69" fill="url(#C)"/><circle cx="321.85" cy="77.81" r="5.11" fill="url(#H)"/><circle cx="279.76" cy="55.57" r="5.11" fill="url(#H)"/></svg>
