<svg xmlns="http://www.w3.org/2000/svg" viewBox="0 0 400 270"><title>Ethyl Acetate</title><desc>Projection of 14 atoms from gallery/curated/organic/ethyl_acetate.xyz. Lines are distance-inferred visual guides, not source bond topology. Source SHA256 26c0b1ef9d4d2ed0b073b13bc23010ea93ce9584137de8cb6b1225327371f67b.</desc><defs><radialGradient id="O" cx="30%" cy="25%" r="75%"><stop stop-color="#ffffff" stop-opacity=".95"/><stop offset=".35" stop-color="#ed927e"/><stop offset="1" stop-color="#ed927e" stop-opacity=".45"/></radialGradient><radialGradient id="C" cx="30%" cy="25%" r="75%"><stop stop-color="#ffffff" stop-opacity=".95"/><stop offset=".35" stop-color="#94aaa0"/><stop offset="1" stop-color="#94aaa0" stop-opacity=".45"/></radialGradient><radialGradient id="H" cx="30%" cy="25%" r="75%"><stop stop-color="#ffffff" stop-opacity=".95"/><stop offset=".35" stop-color="#f2f0dc"/><stop offset="1" stop-color="#f2f0dc" stop-opacity=".45"/></radialGradient></defs><rect width="400" height="270" fill="#101a18"/><g stroke="#698478" stroke-width="4.72" stroke-linecap="round"><path d="M199.5 149.05L159.22 119.69"/><path d="M199.5 149.05L245.53 122.79"/><path d="M255.16 77.39L245.53 122.79"/><path d="M159.22 119.69L111 154.08"/><path d="M159.22 119.69L173.31 107.35"/><path d="M159.22 119.69L149.38 84.85"/><path d="M111 154.08L79.35 132.8"/><path d="M111 154.08L96.86 167.31"/><path d="M111 154.08L120.39 189.44"/><path d="M245.53 122.79L283.79 158.19"/><path d="M283.79 158.19L267.87 170.06"/><path d="M283.79 158.19L291.96 192.61"/><path d="M283.79 158.19L320.65 137"/></g><circle cx="96.86" cy="167.31" r="7.87" fill="url(#H)"/><circle cx="79.35" cy="132.8" r="7.87" fill="url(#H)"/><circle cx="111" cy="154.08" r="13.38" fill="url(#C)"/><circle cx="149.38" cy="84.85" r="7.87" fill="url(#H)"/><circle cx="267.87" cy="170.06" r="7.87" fill="url(#H)"/><circle cx="120.39" cy="189.44" r="7.87" fill="url(#H)"/><circle cx="159.22" cy="119.69" r="13.38" fill="url(#C)"/><circle cx="199.5" cy="149.05" r="13.38" fill="url(#O)"/><circle cx="283.79" cy="158.19" r="13.38" fill="url(#C)"/><circle cx="245.53" cy="122.79" r="13.38" fill="url(#C)"/><circle cx="173.31" cy="107.35" r="7.87" fill="url(#H)"/><circle cx="320.65" cy="137" r="7.87" fill="url(#H)"/><circle cx="255.16" cy="77.39" r="13.38" fill="url(#O)"/><circle cx="291.96" cy="192.61" r="7.87" fill="url(#H)"/></svg>
