<svg xmlns="http://www.w3.org/2000/svg" viewBox="0 0 400 270"><title>Humulone</title><desc>Projection of 56 atoms from gallery/curated/popular/humulone.xyz. Lines are distance-inferred visual guides, not source bond topology. Source SHA256 eb91599b328873cb2e371d3f6f7b96b8aa058567091e222d22957d1aefb005a4.</desc><defs><radialGradient id="O" cx="30%" cy="25%" r="75%"><stop stop-color="#ffffff" stop-opacity=".95"/><stop offset=".35" stop-color="#ed927e"/><stop offset="1" stop-color="#ed927e" stop-opacity=".45"/></radialGradient><radialGradient id="C" cx="30%" cy="25%" r="75%"><stop stop-color="#ffffff" stop-opacity=".95"/><stop offset=".35" stop-color="#94aaa0"/><stop offset="1" stop-color="#94aaa0" stop-opacity=".45"/></radialGradient><radialGradient id="H" cx="30%" cy="25%" r="75%"><stop stop-color="#ffffff" stop-opacity=".95"/><stop offset=".35" stop-color="#f2f0dc"/><stop offset="1" stop-color="#f2f0dc" stop-opacity=".45"/></radialGradient></defs><rect width="400" height="270" fill="#101a18"/><g stroke="#698478" stroke-width="2.57" stroke-linecap="round"><path d="M191.54 212.94L191.34 185.27"/><path d="M191.54 212.94L205.84 212.96"/><path d="M236 198.42L221.21 176.67"/><path d="M236 198.42L254.17 191.16"/><path d="M225.7 101.29L214.19 128.49"/><path d="M225.7 101.29L212.6 87.84"/><path d="M159.98 172.77L178.84 164.97"/><path d="M184.71 92.35L172.54 113.01"/><path d="M191.34 185.27L221.21 176.67"/><path d="M191.34 185.27L171.31 186.33"/><path d="M191.34 185.27L178.84 164.97"/><path d="M221.21 176.67L231.98 150.3"/><path d="M171.31 186.33L142.33 197.31"/><path d="M171.31 186.33L170.68 165.6"/><path d="M171.31 186.33L179.76 201.55"/><path d="M178.84 164.97L189.33 134.84"/><path d="M231.98 150.3L214.19 128.49"/><path d="M231.98 150.3L262.07 141.39"/><path d="M189.33 134.84L214.19 128.49"/><path d="M189.33 134.84L172.54 113.01"/><path d="M140.31 117.18L172.54 113.01"/><path d="M140.31 117.18L123.5 88.9"/><path d="M140.31 117.18L135.04 129.26"/><path d="M140.31 117.18L133.47 129.61"/><path d="M123.5 88.9L131.39 71.09"/><path d="M123.5 88.9L91.18 94.21"/><path d="M123.5 88.9L129.25 76.6"/><path d="M262.07 141.39L263.88 131.36"/><path d="M262.07 141.39L270.09 125.55"/><path d="M262.07 141.39L276.53 159.73"/><path d="M142.33 197.31L116.88 184.25"/><path d="M142.33 197.31L141.95 218.59"/><path d="M131.39 71.09L127.31 82.93"/><path d="M131.39 71.09L118.65 51.41"/><path d="M131.39 71.09L153.89 64.62"/><path d="M91.18 94.21L85.16 106.63"/><path d="M91.18 94.21L84.19 106.07"/><path d="M91.18 94.21L79.41 73.95"/><path d="M263.88 131.36L282.5 112.42"/><path d="M263.88 131.36L248.75 141.04"/><path d="M116.88 184.25L88.46 196.45"/><path d="M116.88 184.25L115.17 155.22"/><path d="M282.5 112.42L283.26 103.15"/><path d="M282.5 112.42L305.07 98.79"/><path d="M88.46 196.45L78.27 182.7"/><path d="M88.46 196.45L74.25 198.26"/><path d="M88.46 196.45L90.78 217.8"/><path d="M115.17 155.22L134.43 142.23"/><path d="M115.17 155.22L97.9 142.67"/><path d="M115.17 155.22L110.4 157.47"/><path d="M283.26 103.15L303.76 108.88"/><path d="M283.26 103.15L266.26 113.35"/><path d="M283.26 103.15L280.38 79.96"/><path d="M305.07 98.79L299.48 76.45"/><path d="M305.07 98.79L325.75 99.1"/><path d="M305.07 98.79L308.53 109.61"/></g><circle cx="74.25" cy="198.26" r="4.28" fill="url(#H)"/><circle cx="110.4" cy="157.47" r="4.28" fill="url(#H)"/><circle cx="97.9" cy="142.67" r="4.28" fill="url(#H)"/><circle cx="88.46" cy="196.45" r="7.28" fill="url(#C)"/><circle cx="115.17" cy="155.22" r="7.28" fill="url(#C)"/><circle cx="90.78" cy="217.8" r="4.28" fill="url(#H)"/><circle cx="78.27" cy="182.7" r="4.28" fill="url(#H)"/><circle cx="116.88" cy="184.25" r="7.28" fill="url(#C)"/><circle cx="134.43" cy="142.23" r="4.28" fill="url(#H)"/><circle cx="142.33" cy="197.31" r="7.28" fill="url(#C)"/><circle cx="84.19" cy="106.07" r="4.28" fill="url(#H)"/><circle cx="179.76" cy="201.55" r="4.28" fill="url(#H)"/><circle cx="170.68" cy="165.6" r="4.28" fill="url(#H)"/><circle cx="141.95" cy="218.59" r="4.28" fill="url(#H)"/><circle cx="127.31" cy="82.93" r="4.28" fill="url(#H)"/><circle cx="171.31" cy="186.33" r="7.28" fill="url(#C)"/><circle cx="79.41" cy="73.95" r="4.28" fill="url(#H)"/><circle cx="266.26" cy="113.35" r="4.28" fill="url(#H)"/><circle cx="118.65" cy="51.41" r="4.28" fill="url(#H)"/><circle cx="91.18" cy="94.21" r="7.28" fill="url(#C)"/><circle cx="131.39" cy="71.09" r="7.28" fill="url(#C)"/><circle cx="133.47" cy="129.61" r="4.28" fill="url(#H)"/><circle cx="85.16" cy="106.63" r="4.28" fill="url(#H)"/><circle cx="248.75" cy="141.04" r="4.28" fill="url(#H)"/><circle cx="280.38" cy="79.96" r="4.28" fill="url(#H)"/><circle cx="283.26" cy="103.15" r="7.28" fill="url(#C)"/><circle cx="153.89" cy="64.62" r="4.28" fill="url(#H)"/><circle cx="123.5" cy="88.9" r="7.28" fill="url(#C)"/><circle cx="303.76" cy="108.88" r="4.28" fill="url(#H)"/><circle cx="191.34" cy="185.27" r="7.28" fill="url(#C)"/><circle cx="140.31" cy="117.18" r="7.28" fill="url(#C)"/><circle cx="191.54" cy="212.94" r="7.28" fill="url(#O)"/><circle cx="236" cy="198.42" r="7.28" fill="url(#O)"/><circle cx="178.84" cy="164.97" r="7.28" fill="url(#C)"/><circle cx="221.21" cy="176.67" r="7.28" fill="url(#C)"/><circle cx="159.98" cy="172.77" r="7.28" fill="url(#O)"/><circle cx="254.17" cy="191.16" r="4.28" fill="url(#H)"/><circle cx="263.88" cy="131.36" r="7.28" fill="url(#C)"/><circle cx="135.04" cy="129.26" r="4.28" fill="url(#H)"/><circle cx="129.25" cy="76.6" r="4.28" fill="url(#H)"/><circle cx="282.5" cy="112.42" r="7.28" fill="url(#C)"/><circle cx="189.33" cy="134.84" r="7.28" fill="url(#C)"/><circle cx="231.98" cy="150.3" r="7.28" fill="url(#C)"/><circle cx="172.54" cy="113.01" r="7.28" fill="url(#C)"/><circle cx="214.19" cy="128.49" r="7.28" fill="url(#C)"/><circle cx="205.84" cy="212.96" r="4.28" fill="url(#H)"/><circle cx="225.7" cy="101.29" r="7.28" fill="url(#O)"/><circle cx="212.6" cy="87.84" r="4.28" fill="url(#H)"/><circle cx="262.07" cy="141.39" r="7.28" fill="url(#C)"/><circle cx="184.71" cy="92.35" r="7.28" fill="url(#O)"/><circle cx="276.53" cy="159.73" r="4.28" fill="url(#H)"/><circle cx="305.07" cy="98.79" r="7.28" fill="url(#C)"/><circle cx="299.48" cy="76.45" r="4.28" fill="url(#H)"/><circle cx="325.75" cy="99.1" r="4.28" fill="url(#H)"/><circle cx="270.09" cy="125.55" r="4.28" fill="url(#H)"/><circle cx="308.53" cy="109.61" r="4.28" fill="url(#H)"/></svg>
