<svg xmlns="http://www.w3.org/2000/svg" viewBox="0 0 400 270"><title>Ketamine</title><desc>Projection of 32 atoms from gallery/curated/popular/ketamine.xyz. Lines are distance-inferred visual guides, not source bond topology. Source SHA256 b4a7628b15755923e2b493aaa746e746ec5fea7ff4ea06dfa3b6ea9d62001d3d.</desc><defs><radialGradient id="Cl" cx="30%" cy="25%" r="75%"><stop stop-color="#ffffff" stop-opacity=".95"/><stop offset=".35" stop-color="#7fdc7f"/><stop offset="1" stop-color="#7fdc7f" stop-opacity=".45"/></radialGradient><radialGradient id="O" cx="30%" cy="25%" r="75%"><stop stop-color="#ffffff" stop-opacity=".95"/><stop offset=".35" stop-color="#ed927e"/><stop offset="1" stop-color="#ed927e" stop-opacity=".45"/></radialGradient><radialGradient id="N" cx="30%" cy="25%" r="75%"><stop stop-color="#ffffff" stop-opacity=".95"/><stop offset=".35" stop-color="#81a9ed"/><stop offset="1" stop-color="#81a9ed" stop-opacity=".45"/></radialGradient><radialGradient id="C" cx="30%" cy="25%" r="75%"><stop stop-color="#ffffff" stop-opacity=".95"/><stop offset=".35" stop-color="#94aaa0"/><stop offset="1" stop-color="#94aaa0" stop-opacity=".45"/></radialGradient><radialGradient id="H" cx="30%" cy="25%" r="75%"><stop stop-color="#ffffff" stop-opacity=".95"/><stop offset=".35" stop-color="#f2f0dc"/><stop offset="1" stop-color="#f2f0dc" stop-opacity=".45"/></radialGradient></defs><rect width="400" height="270" fill="#101a18"/><g stroke="#698478" stroke-width="3.27" stroke-linecap="round"><path d="M181.46 212.77L165.62 169.59"/><path d="M256.28 192.41L247.6 160.55"/><path d="M205.97 163.99L215.42 141.66"/><path d="M205.97 163.99L175.8 147.87"/><path d="M205.97 163.99L227.86 166.4"/><path d="M215.42 141.66L230.65 105.3"/><path d="M215.42 141.66L247.6 160.55"/><path d="M215.42 141.66L182.3 138.76"/><path d="M230.65 105.3L248.76 81.72"/><path d="M230.65 105.3L209.83 88.6"/><path d="M230.65 105.3L251.37 110.82"/><path d="M248.76 81.72L279.93 102.25"/><path d="M248.76 81.72L230.42 71.96"/><path d="M248.76 81.72L259.81 57.23"/><path d="M279.93 102.25L267.36 138.46"/><path d="M279.93 102.25L291.86 85.5"/><path d="M279.93 102.25L301.47 107.09"/><path d="M247.6 160.55L267.36 138.46"/><path d="M267.36 138.46L248.99 134.44"/><path d="M267.36 138.46L290.88 153.99"/><path d="M182.3 138.76L165.62 169.59"/><path d="M182.3 138.76L168.85 104.22"/><path d="M165.62 169.59L135.51 165.86"/><path d="M168.85 104.22L138.73 100.49"/><path d="M168.85 104.22L178.64 79.27"/><path d="M175.8 147.87L168.46 166.7"/><path d="M175.8 147.87L182.73 122.27"/><path d="M175.8 147.87L150.91 144.35"/><path d="M135.51 165.86L122.06 131.31"/><path d="M135.51 165.86L122.18 189.6"/><path d="M138.73 100.49L122.06 131.31"/><path d="M138.73 100.49L127.89 73.64"/><path d="M122.06 131.31L98.53 128.4"/></g><circle cx="168.46" cy="166.7" r="5.45" fill="url(#H)"/><circle cx="182.73" cy="122.27" r="5.45" fill="url(#H)"/><circle cx="150.91" cy="144.35" r="5.45" fill="url(#H)"/><circle cx="175.8" cy="147.87" r="9.26" fill="url(#C)"/><circle cx="227.86" cy="166.4" r="5.45" fill="url(#H)"/><circle cx="205.97" cy="163.99" r="9.26" fill="url(#N)"/><circle cx="209.83" cy="88.6" r="5.45" fill="url(#H)"/><circle cx="251.37" cy="110.82" r="5.45" fill="url(#H)"/><circle cx="181.46" cy="212.77" r="9.26" fill="url(#Cl)"/><circle cx="122.18" cy="189.6" r="5.45" fill="url(#H)"/><circle cx="178.64" cy="79.27" r="5.45" fill="url(#H)"/><circle cx="165.62" cy="169.59" r="9.26" fill="url(#C)"/><circle cx="135.51" cy="165.86" r="9.26" fill="url(#C)"/><circle cx="230.65" cy="105.3" r="9.26" fill="url(#C)"/><circle cx="215.42" cy="141.66" r="9.26" fill="url(#C)"/><circle cx="182.3" cy="138.76" r="9.26" fill="url(#C)"/><circle cx="122.06" cy="131.31" r="9.26" fill="url(#C)"/><circle cx="98.53" cy="128.4" r="5.45" fill="url(#H)"/><circle cx="168.85" cy="104.22" r="9.26" fill="url(#C)"/><circle cx="138.73" cy="100.49" r="9.26" fill="url(#C)"/><circle cx="127.89" cy="73.64" r="5.45" fill="url(#H)"/><circle cx="256.28" cy="192.41" r="9.26" fill="url(#O)"/><circle cx="247.6" cy="160.55" r="9.26" fill="url(#C)"/><circle cx="259.81" cy="57.23" r="5.45" fill="url(#H)"/><circle cx="248.76" cy="81.72" r="9.26" fill="url(#C)"/><circle cx="230.42" cy="71.96" r="5.45" fill="url(#H)"/><circle cx="301.47" cy="107.09" r="5.45" fill="url(#H)"/><circle cx="279.93" cy="102.25" r="9.26" fill="url(#C)"/><circle cx="267.36" cy="138.46" r="9.26" fill="url(#C)"/><circle cx="248.99" cy="134.44" r="5.45" fill="url(#H)"/><circle cx="290.88" cy="153.99" r="5.45" fill="url(#H)"/><circle cx="291.86" cy="85.5" r="5.45" fill="url(#H)"/></svg>
