<svg xmlns="http://www.w3.org/2000/svg" viewBox="0 0 400 270"><title>Linalool</title><desc>Projection of 29 atoms from gallery/curated/popular/linalool.xyz. Lines are distance-inferred visual guides, not source bond topology. Source SHA256 a539f9e4bc33b93a8e319a9164788311d266aafa53ead11550f7a0191dbc57a0.</desc><defs><radialGradient id="O" cx="30%" cy="25%" r="75%"><stop stop-color="#ffffff" stop-opacity=".95"/><stop offset=".35" stop-color="#ed927e"/><stop offset="1" stop-color="#ed927e" stop-opacity=".45"/></radialGradient><radialGradient id="C" cx="30%" cy="25%" r="75%"><stop stop-color="#ffffff" stop-opacity=".95"/><stop offset=".35" stop-color="#94aaa0"/><stop offset="1" stop-color="#94aaa0" stop-opacity=".45"/></radialGradient><radialGradient id="H" cx="30%" cy="25%" r="75%"><stop stop-color="#ffffff" stop-opacity=".95"/><stop offset=".35" stop-color="#f2f0dc"/><stop offset="1" stop-color="#f2f0dc" stop-opacity=".45"/></radialGradient></defs><rect width="400" height="270" fill="#101a18"/><g stroke="#698478" stroke-width="3.59" stroke-linecap="round"><path d="M271.4 152.3L265.7 149.71"/><path d="M271.4 152.3L252.11 134.73"/><path d="M265.7 149.71L221.98 162.42"/><path d="M265.7 149.71L295.43 179.54"/><path d="M265.7 149.71L272.54 106.44"/><path d="M221.98 162.42L209.64 161.36"/><path d="M221.98 162.42L201.64 143.37"/><path d="M221.98 162.42L217.28 192.68"/><path d="M209.64 161.36L167.5 176.21"/><path d="M209.64 161.36L213.36 131.42"/><path d="M209.64 161.36L229.17 180.9"/><path d="M295.43 179.54L288.78 210.07"/><path d="M295.43 179.54L326.04 173.27"/><path d="M295.43 179.54L295.09 179.27"/><path d="M272.54 106.44L301.15 91.84"/><path d="M272.54 106.44L251.87 84.86"/><path d="M167.5 176.21L133.56 154.51"/><path d="M167.5 176.21L164.83 208.36"/><path d="M133.56 154.51L92.18 171.2"/><path d="M133.56 154.51L134.98 110.05"/><path d="M92.18 171.2L73.96 165.72"/><path d="M92.18 171.2L77.59 157.19"/><path d="M92.18 171.2L92.82 203.54"/><path d="M134.98 110.05L125.82 94.16"/><path d="M134.98 110.05L164.24 98.57"/><path d="M134.98 110.05L114.17 101.96"/><path d="M301.15 91.84L302.81 59.93"/><path d="M301.15 91.84L323.27 110.74"/></g><circle cx="73.96" cy="165.72" r="5.99" fill="url(#H)"/><circle cx="114.17" cy="101.96" r="5.99" fill="url(#H)"/><circle cx="92.18" cy="171.2" r="10.18" fill="url(#C)"/><circle cx="92.82" cy="203.54" r="5.99" fill="url(#H)"/><circle cx="252.11" cy="134.73" r="5.99" fill="url(#H)"/><circle cx="201.64" cy="143.37" r="5.99" fill="url(#H)"/><circle cx="77.59" cy="157.19" r="5.99" fill="url(#H)"/><circle cx="134.98" cy="110.05" r="10.18" fill="url(#C)"/><circle cx="217.28" cy="192.68" r="5.99" fill="url(#H)"/><circle cx="133.56" cy="154.51" r="10.18" fill="url(#C)"/><circle cx="271.4" cy="152.3" r="10.18" fill="url(#O)"/><circle cx="164.24" cy="98.57" r="5.99" fill="url(#H)"/><circle cx="221.98" cy="162.42" r="10.18" fill="url(#C)"/><circle cx="125.82" cy="94.16" r="5.99" fill="url(#H)"/><circle cx="164.83" cy="208.36" r="5.99" fill="url(#H)"/><circle cx="167.5" cy="176.21" r="10.18" fill="url(#C)"/><circle cx="251.87" cy="84.86" r="5.99" fill="url(#H)"/><circle cx="265.7" cy="149.71" r="10.18" fill="url(#C)"/><circle cx="209.64" cy="161.36" r="10.18" fill="url(#C)"/><circle cx="288.78" cy="210.07" r="5.99" fill="url(#H)"/><circle cx="272.54" cy="106.44" r="10.18" fill="url(#C)"/><circle cx="213.36" cy="131.42" r="5.99" fill="url(#H)"/><circle cx="295.43" cy="179.54" r="10.18" fill="url(#C)"/><circle cx="229.17" cy="180.9" r="5.99" fill="url(#H)"/><circle cx="326.04" cy="173.27" r="5.99" fill="url(#H)"/><circle cx="301.15" cy="91.84" r="10.18" fill="url(#C)"/><circle cx="295.09" cy="179.27" r="5.99" fill="url(#H)"/><circle cx="302.81" cy="59.93" r="5.99" fill="url(#H)"/><circle cx="323.27" cy="110.74" r="5.99" fill="url(#H)"/></svg>
