<svg xmlns="http://www.w3.org/2000/svg" viewBox="0 0 400 270"><title>Nitrobenzene</title><desc>Projection of 14 atoms from gallery/curated/organic/nitrobenzene.xyz. Lines are distance-inferred visual guides, not source bond topology. Source SHA256 e7dd00c69b83f2c5b7748f0e7a81d2387b986775ffc6774721fa79bb83ec9808.</desc><defs><radialGradient id="O" cx="30%" cy="25%" r="75%"><stop stop-color="#ffffff" stop-opacity=".95"/><stop offset=".35" stop-color="#ed927e"/><stop offset="1" stop-color="#ed927e" stop-opacity=".45"/></radialGradient><radialGradient id="N" cx="30%" cy="25%" r="75%"><stop stop-color="#ffffff" stop-opacity=".95"/><stop offset=".35" stop-color="#81a9ed"/><stop offset="1" stop-color="#81a9ed" stop-opacity=".45"/></radialGradient><radialGradient id="C" cx="30%" cy="25%" r="75%"><stop stop-color="#ffffff" stop-opacity=".95"/><stop offset=".35" stop-color="#94aaa0"/><stop offset="1" stop-color="#94aaa0" stop-opacity=".45"/></radialGradient><radialGradient id="H" cx="30%" cy="25%" r="75%"><stop stop-color="#ffffff" stop-opacity=".95"/><stop offset=".35" stop-color="#f2f0dc"/><stop offset="1" stop-color="#f2f0dc" stop-opacity=".45"/></radialGradient></defs><rect width="400" height="270" fill="#101a18"/><g stroke="#698478" stroke-width="3.97" stroke-linecap="round"><path d="M291.9 87.97L272.97 124.47"/><path d="M291.9 156.31L272.97 124.47"/><path d="M272.97 124.47L228.76 129.9"/><path d="M228.76 129.9L207.05 94.96"/><path d="M228.76 129.9L207.05 170.18"/><path d="M207.05 94.96L163.63 100.31"/><path d="M207.05 94.96L222.92 63.12"/><path d="M207.05 170.18L163.62 175.52"/><path d="M207.05 170.18L222.92 198.12"/><path d="M163.63 100.31L141.91 140.59"/><path d="M163.63 100.31L146.7 73.11"/><path d="M163.62 175.52L141.91 140.59"/><path d="M163.62 175.52L146.7 206.88"/><path d="M141.91 140.59L108.1 144.75"/></g><circle cx="146.7" cy="206.88" r="6.62" fill="url(#H)"/><circle cx="108.1" cy="144.75" r="6.62" fill="url(#H)"/><circle cx="163.62" cy="175.52" r="11.26" fill="url(#C)"/><circle cx="141.91" cy="140.59" r="11.26" fill="url(#C)"/><circle cx="222.92" cy="198.12" r="6.62" fill="url(#H)"/><circle cx="207.05" cy="170.18" r="11.26" fill="url(#C)"/><circle cx="163.63" cy="100.31" r="11.26" fill="url(#C)"/><circle cx="146.7" cy="73.11" r="6.62" fill="url(#H)"/><circle cx="228.76" cy="129.9" r="11.26" fill="url(#C)"/><circle cx="207.05" cy="94.96" r="11.26" fill="url(#C)"/><circle cx="291.9" cy="156.31" r="11.26" fill="url(#O)"/><circle cx="272.97" cy="124.47" r="11.26" fill="url(#N)"/><circle cx="222.92" cy="63.12" r="6.62" fill="url(#H)"/><circle cx="291.9" cy="87.97" r="11.26" fill="url(#O)"/></svg>
