<svg xmlns="http://www.w3.org/2000/svg" viewBox="0 0 400 270"><title>Phenylethylamine</title><desc>Projection of 20 atoms from gallery/curated/popular/phenethylamine.xyz. Lines are distance-inferred visual guides, not source bond topology. Source SHA256 7f65af9214d7f6fb7f595ca9374afdf474392a32008793c6f41c822f7cd45a21.</desc><defs><radialGradient id="N" cx="30%" cy="25%" r="75%"><stop stop-color="#ffffff" stop-opacity=".95"/><stop offset=".35" stop-color="#81a9ed"/><stop offset="1" stop-color="#81a9ed" stop-opacity=".45"/></radialGradient><radialGradient id="C" cx="30%" cy="25%" r="75%"><stop stop-color="#ffffff" stop-opacity=".95"/><stop offset=".35" stop-color="#94aaa0"/><stop offset="1" stop-color="#94aaa0" stop-opacity=".45"/></radialGradient><radialGradient id="H" cx="30%" cy="25%" r="75%"><stop stop-color="#ffffff" stop-opacity=".95"/><stop offset=".35" stop-color="#f2f0dc"/><stop offset="1" stop-color="#f2f0dc" stop-opacity=".45"/></radialGradient></defs><rect width="400" height="270" fill="#101a18"/><g stroke="#698478" stroke-width="4" stroke-linecap="round"><path d="M313.22 113.21L264.85 114.28"/><path d="M313.22 113.21L326.65 92.34"/><path d="M313.22 113.21L321.1 100.08"/><path d="M251.14 131.07L201.73 133.16"/><path d="M251.14 131.07L264.85 114.28"/><path d="M251.14 131.07L265.38 109.4"/><path d="M251.14 131.07L265.53 164.2"/><path d="M201.73 133.16L178.49 96.27"/><path d="M201.73 133.16L178.77 172.02"/><path d="M264.85 114.28L251.48 80.74"/><path d="M264.85 114.28L250.85 135.97"/><path d="M178.49 96.27L132.29 98.22"/><path d="M178.49 96.27L195.98 65.78"/><path d="M178.77 172.02L132.57 173.98"/><path d="M178.77 172.02L196.48 200.97"/><path d="M132.29 98.22L109.33 137.08"/><path d="M132.29 98.22L114.19 69.49"/><path d="M132.57 173.98L109.33 137.08"/><path d="M132.57 173.98L114.68 204.22"/><path d="M109.33 137.08L73.35 138.6"/></g><circle cx="114.68" cy="204.22" r="6.67" fill="url(#H)"/><circle cx="73.35" cy="138.6" r="6.67" fill="url(#H)"/><circle cx="132.57" cy="173.98" r="11.34" fill="url(#C)"/><circle cx="109.33" cy="137.08" r="11.34" fill="url(#C)"/><circle cx="250.85" cy="135.97" r="6.67" fill="url(#H)"/><circle cx="196.48" cy="200.97" r="6.67" fill="url(#H)"/><circle cx="178.77" cy="172.02" r="11.34" fill="url(#C)"/><circle cx="132.29" cy="98.22" r="11.34" fill="url(#C)"/><circle cx="114.19" cy="69.49" r="6.67" fill="url(#H)"/><circle cx="251.48" cy="80.74" r="6.67" fill="url(#H)"/><circle cx="264.85" cy="114.28" r="11.34" fill="url(#C)"/><circle cx="201.73" cy="133.16" r="11.34" fill="url(#C)"/><circle cx="178.49" cy="96.27" r="11.34" fill="url(#C)"/><circle cx="321.1" cy="100.08" r="6.67" fill="url(#H)"/><circle cx="195.98" cy="65.78" r="6.67" fill="url(#H)"/><circle cx="313.22" cy="113.21" r="11.34" fill="url(#N)"/><circle cx="251.14" cy="131.07" r="11.34" fill="url(#C)"/><circle cx="265.53" cy="164.2" r="6.67" fill="url(#H)"/><circle cx="326.65" cy="92.34" r="6.67" fill="url(#H)"/><circle cx="265.38" cy="109.4" r="6.67" fill="url(#H)"/></svg>
