<svg xmlns="http://www.w3.org/2000/svg" viewBox="0 0 400 270"><title>Ice/Water Cluster</title><desc>Projection of 192 atoms from gallery/curated/water_cluster.xyz. Lines are distance-inferred visual guides, not source bond topology. Source SHA256 79a658d85dd299d0aa435c673ba3fd79b88252a71f44e53980ddcb53b491249d.</desc><defs><radialGradient id="O" cx="30%" cy="25%" r="75%"><stop stop-color="#ffffff" stop-opacity=".95"/><stop offset=".35" stop-color="#ed927e"/><stop offset="1" stop-color="#ed927e" stop-opacity=".45"/></radialGradient><radialGradient id="H" cx="30%" cy="25%" r="75%"><stop stop-color="#ffffff" stop-opacity=".95"/><stop offset=".35" stop-color="#f2f0dc"/><stop offset="1" stop-color="#f2f0dc" stop-opacity=".45"/></radialGradient></defs><rect width="400" height="270" fill="#101a18"/><g stroke="#698478" stroke-width="1.59" stroke-linecap="round"><path d="M124.85 181.52L122.15 169.46"/><path d="M124.85 181.52L122.15 188.52"/><path d="M138.39 194.25L135.7 182.19"/><path d="M138.39 194.25L135.7 201.25"/><path d="M151.94 206.99L149.25 194.93"/><path d="M151.94 206.99L149.25 213.98"/><path d="M165.49 219.72L162.79 207.66"/><path d="M165.49 219.72L162.79 226.72"/><path d="M124.85 144.07L122.15 132.01"/><path d="M124.85 144.07L122.15 151.06"/><path d="M138.39 156.8L135.7 144.74"/><path d="M138.39 156.8L135.7 163.8"/><path d="M151.94 169.53L149.25 157.47"/><path d="M151.94 169.53L149.25 176.53"/><path d="M165.49 182.27L162.79 170.21"/><path d="M165.49 182.27L162.79 189.27"/><path d="M124.85 106.61L122.15 94.55"/><path d="M124.85 106.61L122.15 113.61"/><path d="M138.39 119.35L135.7 107.29"/><path d="M138.39 119.35L135.7 126.34"/><path d="M151.94 132.08L149.25 120.02"/><path d="M151.94 132.08L149.25 139.08"/><path d="M165.49 144.81L162.79 132.75"/><path d="M165.49 144.81L162.79 151.81"/><path d="M124.85 69.16L122.15 57.1"/><path d="M124.85 69.16L122.15 76.16"/><path d="M138.39 81.89L135.7 69.83"/><path d="M138.39 81.89L135.7 88.89"/><path d="M151.94 94.63L149.25 82.57"/><path d="M151.94 94.63L149.25 101.62"/><path d="M165.49 107.36L162.79 95.3"/><path d="M165.49 107.36L162.79 114.36"/><path d="M162.3 176.91L159.61 164.85"/><path d="M162.3 176.91L159.61 183.91"/><path d="M175.85 189.65L173.15 177.59"/><path d="M175.85 189.65L173.15 196.64"/><path d="M189.39 202.38L186.7 190.32"/><path d="M189.39 202.38L186.7 209.38"/><path d="M202.94 215.12L200.25 203.06"/><path d="M202.94 215.12L200.25 222.11"/><path d="M162.3 139.46L159.61 127.4"/><path d="M162.3 139.46L159.61 146.46"/><path d="M175.85 152.19L173.15 140.13"/><path d="M175.85 152.19L173.15 159.19"/><path d="M189.39 164.93L186.7 152.87"/><path d="M189.39 164.93L186.7 171.93"/><path d="M202.94 177.66L200.25 165.6"/><path d="M202.94 177.66L200.25 184.66"/><path d="M162.3 102.01L159.61 89.95"/><path d="M162.3 102.01L159.61 109"/><path d="M175.85 114.74L173.15 102.68"/><path d="M175.85 114.74L173.15 121.74"/><path d="M189.39 127.47L186.7 115.41"/><path d="M189.39 127.47L186.7 134.47"/><path d="M202.94 140.21L200.25 128.15"/><path d="M202.94 140.21L200.25 147.21"/><path d="M162.3 64.55L159.61 52.49"/><path d="M162.3 64.55L159.61 71.55"/><path d="M175.85 77.29L173.15 65.23"/><path d="M175.85 77.29L173.15 84.28"/><path d="M189.39 90.02L186.7 77.96"/><path d="M189.39 90.02L186.7 97.02"/><path d="M202.94 102.76L200.25 90.7"/><path d="M202.94 102.76L200.25 109.75"/><path d="M199.75 172.31L197.06 160.25"/><path d="M199.75 172.31L197.06 179.3"/><path d="M213.3 185.04L210.61 172.98"/><path d="M213.3 185.04L210.61 192.04"/><path d="M226.85 197.78L224.15 185.72"/><path d="M226.85 197.78L224.15 204.77"/><path d="M240.39 210.51L237.7 198.45"/><path d="M240.39 210.51L237.7 217.51"/><path d="M199.75 134.85L197.06 122.79"/><path d="M199.75 134.85L197.06 141.85"/><path d="M213.3 147.59L210.61 135.53"/><path d="M213.3 147.59L210.61 154.59"/><path d="M226.85 160.32L224.15 148.26"/><path d="M226.85 160.32L224.15 167.32"/><path d="M240.39 173.06L237.7 161"/><path d="M240.39 173.06L237.7 180.05"/><path d="M199.75 97.4L197.06 85.34"/><path d="M199.75 97.4L197.06 104.4"/><path d="M213.3 110.13L210.61 98.07"/><path d="M213.3 110.13L210.61 117.13"/><path d="M226.85 122.87L224.15 110.81"/><path d="M226.85 122.87L224.15 129.87"/><path d="M240.39 135.6L237.7 123.54"/><path d="M240.39 135.6L237.7 142.6"/><path d="M199.75 59.95L197.06 47.89"/><path d="M199.75 59.95L197.06 66.94"/><path d="M213.3 72.68L210.61 60.62"/><path d="M213.3 72.68L210.61 79.68"/><path d="M226.85 85.42L224.15 73.36"/><path d="M226.85 85.42L224.15 92.41"/><path d="M240.39 98.15L237.7 86.09"/><path d="M240.39 98.15L237.7 105.15"/><path d="M237.21 167.7L234.51 155.64"/><path d="M237.21 167.7L234.51 174.7"/><path d="M250.75 180.44L248.06 168.38"/><path d="M250.75 180.44L248.06 187.43"/><path d="M264.3 193.17L261.61 181.11"/><path d="M264.3 193.17L261.61 200.17"/><path d="M277.85 205.9L275.15 193.84"/><path d="M277.85 205.9L275.15 212.9"/><path d="M237.21 130.25L234.51 118.19"/><path d="M237.21 130.25L234.51 137.25"/><path d="M250.75 142.98L248.06 130.92"/><path d="M250.75 142.98L248.06 149.98"/><path d="M264.3 155.72L261.61 143.66"/><path d="M264.3 155.72L261.61 162.71"/><path d="M277.85 168.45L275.15 156.39"/><path d="M277.85 168.45L275.15 175.45"/><path d="M237.21 92.79L234.51 80.73"/><path d="M237.21 92.79L234.51 99.79"/><path d="M250.75 105.53L248.06 93.47"/><path d="M250.75 105.53L248.06 112.53"/><path d="M264.3 118.26L261.61 106.2"/><path d="M264.3 118.26L261.61 125.26"/><path d="M277.85 131L275.15 118.94"/><path d="M277.85 131L275.15 137.99"/><path d="M237.21 55.34L234.51 43.28"/><path d="M237.21 55.34L234.51 62.34"/><path d="M250.75 68.08L248.06 56.02"/><path d="M250.75 68.08L248.06 75.07"/><path d="M264.3 80.81L261.61 68.75"/><path d="M264.3 80.81L261.61 87.81"/><path d="M277.85 93.54L275.15 81.48"/><path d="M277.85 93.54L275.15 100.54"/></g><circle cx="122.15" cy="188.52" r="2.66" fill="url(#H)"/><circle cx="122.15" cy="169.46" r="2.66" fill="url(#H)"/><circle cx="124.85" cy="181.52" r="4.52" fill="url(#O)"/><circle cx="159.61" cy="183.91" r="2.66" fill="url(#H)"/><circle cx="122.15" cy="151.06" r="2.66" fill="url(#H)"/><circle cx="159.61" cy="164.85" r="2.66" fill="url(#H)"/><circle cx="122.15" cy="132.01" r="2.66" fill="url(#H)"/><circle cx="162.3" cy="176.91" r="4.52" fill="url(#O)"/><circle cx="124.85" cy="144.07" r="4.52" fill="url(#O)"/><circle cx="197.06" cy="179.3" r="2.66" fill="url(#H)"/><circle cx="159.61" cy="146.46" r="2.66" fill="url(#H)"/><circle cx="122.15" cy="113.61" r="2.66" fill="url(#H)"/><circle cx="197.06" cy="160.25" r="2.66" fill="url(#H)"/><circle cx="159.61" cy="127.4" r="2.66" fill="url(#H)"/><circle cx="122.15" cy="94.55" r="2.66" fill="url(#H)"/><circle cx="135.7" cy="201.25" r="2.66" fill="url(#H)"/><circle cx="199.75" cy="172.31" r="4.52" fill="url(#O)"/><circle cx="162.3" cy="139.46" r="4.52" fill="url(#O)"/><circle cx="124.85" cy="106.61" r="4.52" fill="url(#O)"/><circle cx="234.51" cy="174.7" r="2.66" fill="url(#H)"/><circle cx="197.06" cy="141.85" r="2.66" fill="url(#H)"/><circle cx="159.61" cy="109" r="2.66" fill="url(#H)"/><circle cx="122.15" cy="76.16" r="2.66" fill="url(#H)"/><circle cx="135.7" cy="182.19" r="2.66" fill="url(#H)"/><circle cx="234.51" cy="155.64" r="2.66" fill="url(#H)"/><circle cx="138.39" cy="194.25" r="4.52" fill="url(#O)"/><circle cx="197.06" cy="122.79" r="2.66" fill="url(#H)"/><circle cx="159.61" cy="89.95" r="2.66" fill="url(#H)"/><circle cx="122.15" cy="57.1" r="2.66" fill="url(#H)"/><circle cx="173.15" cy="196.64" r="2.66" fill="url(#H)"/><circle cx="135.7" cy="163.8" r="2.66" fill="url(#H)"/><circle cx="237.21" cy="167.7" r="4.52" fill="url(#O)"/><circle cx="199.75" cy="134.85" r="4.52" fill="url(#O)"/><circle cx="162.3" cy="102.01" r="4.52" fill="url(#O)"/><circle cx="124.85" cy="69.16" r="4.52" fill="url(#O)"/><circle cx="234.51" cy="137.25" r="2.66" fill="url(#H)"/><circle cx="197.06" cy="104.4" r="2.66" fill="url(#H)"/><circle cx="159.61" cy="71.55" r="2.66" fill="url(#H)"/><circle cx="173.15" cy="177.59" r="2.66" fill="url(#H)"/><circle cx="135.7" cy="144.74" r="2.66" fill="url(#H)"/><circle cx="175.85" cy="189.65" r="4.52" fill="url(#O)"/><circle cx="234.51" cy="118.19" r="2.66" fill="url(#H)"/><circle cx="138.39" cy="156.8" r="4.52" fill="url(#O)"/><circle cx="197.06" cy="85.34" r="2.66" fill="url(#H)"/><circle cx="159.61" cy="52.49" r="2.66" fill="url(#H)"/><circle cx="210.61" cy="192.04" r="2.66" fill="url(#H)"/><circle cx="173.15" cy="159.19" r="2.66" fill="url(#H)"/><circle cx="135.7" cy="126.34" r="2.66" fill="url(#H)"/><circle cx="237.21" cy="130.25" r="4.52" fill="url(#O)"/><circle cx="199.75" cy="97.4" r="4.52" fill="url(#O)"/><circle cx="162.3" cy="64.55" r="4.52" fill="url(#O)"/><circle cx="234.51" cy="99.79" r="2.66" fill="url(#H)"/><circle cx="197.06" cy="66.94" r="2.66" fill="url(#H)"/><circle cx="210.61" cy="172.98" r="2.66" fill="url(#H)"/><circle cx="173.15" cy="140.13" r="2.66" fill="url(#H)"/><circle cx="135.7" cy="107.29" r="2.66" fill="url(#H)"/><circle cx="149.25" cy="213.98" r="2.66" fill="url(#H)"/><circle cx="213.3" cy="185.04" r="4.52" fill="url(#O)"/><circle cx="175.85" cy="152.19" r="4.52" fill="url(#O)"/><circle cx="234.51" cy="80.73" r="2.66" fill="url(#H)"/><circle cx="138.39" cy="119.35" r="4.52" fill="url(#O)"/><circle cx="197.06" cy="47.89" r="2.66" fill="url(#H)"/><circle cx="248.06" cy="187.43" r="2.66" fill="url(#H)"/><circle cx="210.61" cy="154.59" r="2.66" fill="url(#H)"/><circle cx="173.15" cy="121.74" r="2.66" fill="url(#H)"/><circle cx="135.7" cy="88.89" r="2.66" fill="url(#H)"/><circle cx="237.21" cy="92.79" r="4.52" fill="url(#O)"/><circle cx="199.75" cy="59.95" r="4.52" fill="url(#O)"/><circle cx="149.25" cy="194.93" r="2.66" fill="url(#H)"/><circle cx="234.51" cy="62.34" r="2.66" fill="url(#H)"/><circle cx="248.06" cy="168.38" r="2.66" fill="url(#H)"/><circle cx="151.94" cy="206.99" r="4.52" fill="url(#O)"/><circle cx="210.61" cy="135.53" r="2.66" fill="url(#H)"/><circle cx="173.15" cy="102.68" r="2.66" fill="url(#H)"/><circle cx="135.7" cy="69.83" r="2.66" fill="url(#H)"/><circle cx="186.7" cy="209.38" r="2.66" fill="url(#H)"/><circle cx="149.25" cy="176.53" r="2.66" fill="url(#H)"/><circle cx="250.75" cy="180.44" r="4.52" fill="url(#O)"/><circle cx="213.3" cy="147.59" r="4.52" fill="url(#O)"/><circle cx="175.85" cy="114.74" r="4.52" fill="url(#O)"/><circle cx="234.51" cy="43.28" r="2.66" fill="url(#H)"/><circle cx="138.39" cy="81.89" r="4.52" fill="url(#O)"/><circle cx="248.06" cy="149.98" r="2.66" fill="url(#H)"/><circle cx="210.61" cy="117.13" r="2.66" fill="url(#H)"/><circle cx="173.15" cy="84.28" r="2.66" fill="url(#H)"/><circle cx="237.21" cy="55.34" r="4.52" fill="url(#O)"/><circle cx="186.7" cy="190.32" r="2.66" fill="url(#H)"/><circle cx="149.25" cy="157.47" r="2.66" fill="url(#H)"/><circle cx="189.39" cy="202.38" r="4.52" fill="url(#O)"/><circle cx="248.06" cy="130.92" r="2.66" fill="url(#H)"/><circle cx="151.94" cy="169.53" r="4.52" fill="url(#O)"/><circle cx="210.61" cy="98.07" r="2.66" fill="url(#H)"/><circle cx="173.15" cy="65.23" r="2.66" fill="url(#H)"/><circle cx="224.15" cy="204.77" r="2.66" fill="url(#H)"/><circle cx="186.7" cy="171.93" r="2.66" fill="url(#H)"/><circle cx="149.25" cy="139.08" r="2.66" fill="url(#H)"/><circle cx="250.75" cy="142.98" r="4.52" fill="url(#O)"/><circle cx="213.3" cy="110.13" r="4.52" fill="url(#O)"/><circle cx="175.85" cy="77.29" r="4.52" fill="url(#O)"/><circle cx="248.06" cy="112.53" r="2.66" fill="url(#H)"/><circle cx="210.61" cy="79.68" r="2.66" fill="url(#H)"/><circle cx="224.15" cy="185.72" r="2.66" fill="url(#H)"/><circle cx="186.7" cy="152.87" r="2.66" fill="url(#H)"/><circle cx="149.25" cy="120.02" r="2.66" fill="url(#H)"/><circle cx="162.79" cy="226.72" r="2.66" fill="url(#H)"/><circle cx="226.85" cy="197.78" r="4.52" fill="url(#O)"/><circle cx="189.39" cy="164.93" r="4.52" fill="url(#O)"/><circle cx="248.06" cy="93.47" r="2.66" fill="url(#H)"/><circle cx="151.94" cy="132.08" r="4.52" fill="url(#O)"/><circle cx="210.61" cy="60.62" r="2.66" fill="url(#H)"/><circle cx="261.61" cy="200.17" r="2.66" fill="url(#H)"/><circle cx="224.15" cy="167.32" r="2.66" fill="url(#H)"/><circle cx="186.7" cy="134.47" r="2.66" fill="url(#H)"/><circle cx="149.25" cy="101.62" r="2.66" fill="url(#H)"/><circle cx="250.75" cy="105.53" r="4.52" fill="url(#O)"/><circle cx="213.3" cy="72.68" r="4.52" fill="url(#O)"/><circle cx="162.79" cy="207.66" r="2.66" fill="url(#H)"/><circle cx="248.06" cy="75.07" r="2.66" fill="url(#H)"/><circle cx="261.61" cy="181.11" r="2.66" fill="url(#H)"/><circle cx="165.49" cy="219.72" r="4.52" fill="url(#O)"/><circle cx="224.15" cy="148.26" r="2.66" fill="url(#H)"/><circle cx="186.7" cy="115.41" r="2.66" fill="url(#H)"/><circle cx="149.25" cy="82.57" r="2.66" fill="url(#H)"/><circle cx="200.25" cy="222.11" r="2.66" fill="url(#H)"/><circle cx="162.79" cy="189.27" r="2.66" fill="url(#H)"/><circle cx="264.3" cy="193.17" r="4.52" fill="url(#O)"/><circle cx="226.85" cy="160.32" r="4.52" fill="url(#O)"/><circle cx="189.39" cy="127.47" r="4.52" fill="url(#O)"/><circle cx="248.06" cy="56.02" r="2.66" fill="url(#H)"/><circle cx="151.94" cy="94.63" r="4.52" fill="url(#O)"/><circle cx="261.61" cy="162.71" r="2.66" fill="url(#H)"/><circle cx="224.15" cy="129.87" r="2.66" fill="url(#H)"/><circle cx="186.7" cy="97.02" r="2.66" fill="url(#H)"/><circle cx="250.75" cy="68.08" r="4.52" fill="url(#O)"/><circle cx="200.25" cy="203.06" r="2.66" fill="url(#H)"/><circle cx="162.79" cy="170.21" r="2.66" fill="url(#H)"/><circle cx="202.94" cy="215.12" r="4.52" fill="url(#O)"/><circle cx="261.61" cy="143.66" r="2.66" fill="url(#H)"/><circle cx="165.49" cy="182.27" r="4.52" fill="url(#O)"/><circle cx="224.15" cy="110.81" r="2.66" fill="url(#H)"/><circle cx="186.7" cy="77.96" r="2.66" fill="url(#H)"/><circle cx="237.7" cy="217.51" r="2.66" fill="url(#H)"/><circle cx="200.25" cy="184.66" r="2.66" fill="url(#H)"/><circle cx="162.79" cy="151.81" r="2.66" fill="url(#H)"/><circle cx="264.3" cy="155.72" r="4.52" fill="url(#O)"/><circle cx="226.85" cy="122.87" r="4.52" fill="url(#O)"/><circle cx="189.39" cy="90.02" r="4.52" fill="url(#O)"/><circle cx="261.61" cy="125.26" r="2.66" fill="url(#H)"/><circle cx="224.15" cy="92.41" r="2.66" fill="url(#H)"/><circle cx="237.7" cy="198.45" r="2.66" fill="url(#H)"/><circle cx="200.25" cy="165.6" r="2.66" fill="url(#H)"/><circle cx="162.79" cy="132.75" r="2.66" fill="url(#H)"/><circle cx="240.39" cy="210.51" r="4.52" fill="url(#O)"/><circle cx="202.94" cy="177.66" r="4.52" fill="url(#O)"/><circle cx="261.61" cy="106.2" r="2.66" fill="url(#H)"/><circle cx="165.49" cy="144.81" r="4.52" fill="url(#O)"/><circle cx="224.15" cy="73.36" r="2.66" fill="url(#H)"/><circle cx="275.15" cy="212.9" r="2.66" fill="url(#H)"/><circle cx="237.7" cy="180.05" r="2.66" fill="url(#H)"/><circle cx="200.25" cy="147.21" r="2.66" fill="url(#H)"/><circle cx="162.79" cy="114.36" r="2.66" fill="url(#H)"/><circle cx="264.3" cy="118.26" r="4.52" fill="url(#O)"/><circle cx="226.85" cy="85.42" r="4.52" fill="url(#O)"/><circle cx="261.61" cy="87.81" r="2.66" fill="url(#H)"/><circle cx="275.15" cy="193.84" r="2.66" fill="url(#H)"/><circle cx="237.7" cy="161" r="2.66" fill="url(#H)"/><circle cx="200.25" cy="128.15" r="2.66" fill="url(#H)"/><circle cx="162.79" cy="95.3" r="2.66" fill="url(#H)"/><circle cx="277.85" cy="205.9" r="4.52" fill="url(#O)"/><circle cx="240.39" cy="173.06" r="4.52" fill="url(#O)"/><circle cx="202.94" cy="140.21" r="4.52" fill="url(#O)"/><circle cx="261.61" cy="68.75" r="2.66" fill="url(#H)"/><circle cx="165.49" cy="107.36" r="4.52" fill="url(#O)"/><circle cx="275.15" cy="175.45" r="2.66" fill="url(#H)"/><circle cx="237.7" cy="142.6" r="2.66" fill="url(#H)"/><circle cx="200.25" cy="109.75" r="2.66" fill="url(#H)"/><circle cx="264.3" cy="80.81" r="4.52" fill="url(#O)"/><circle cx="275.15" cy="156.39" r="2.66" fill="url(#H)"/><circle cx="237.7" cy="123.54" r="2.66" fill="url(#H)"/><circle cx="200.25" cy="90.7" r="2.66" fill="url(#H)"/><circle cx="277.85" cy="168.45" r="4.52" fill="url(#O)"/><circle cx="240.39" cy="135.6" r="4.52" fill="url(#O)"/><circle cx="202.94" cy="102.76" r="4.52" fill="url(#O)"/><circle cx="275.15" cy="137.99" r="2.66" fill="url(#H)"/><circle cx="237.7" cy="105.15" r="2.66" fill="url(#H)"/><circle cx="275.15" cy="118.94" r="2.66" fill="url(#H)"/><circle cx="237.7" cy="86.09" r="2.66" fill="url(#H)"/><circle cx="277.85" cy="131" r="4.52" fill="url(#O)"/><circle cx="240.39" cy="98.15" r="4.52" fill="url(#O)"/><circle cx="275.15" cy="100.54" r="2.66" fill="url(#H)"/><circle cx="275.15" cy="81.48" r="2.66" fill="url(#H)"/><circle cx="277.85" cy="93.54" r="4.52" fill="url(#O)"/></svg>
